<?xml version="1.0" encoding="iso-8859-1"?>
<!-- Generator: Adobe Illustrator 27.0.0, SVG Export Plug-In . SVG Version: 6.00 Build 0)  -->
<svg version="1.1" id="Layer_1" xmlns="http://www.w3.org/2000/svg" xmlns:xlink="http://www.w3.org/1999/xlink" x="0px" y="0px"
	viewBox="0 0 500 500" style="enable-background:new 0 0 500 500;" xml:space="preserve" width="28" height="28">
<g>
	<path d="M372.927,129.733l-0.308-0.182l-0.714-0.218C372.192,129.576,372.552,129.717,372.927,129.733z"/>
	<path d="M377.441,161.889l-0.345,0.097L377.441,161.889z"/>
	<path d="M373.01,129.512c-0.035-0.005-0.071-0.013-0.105-0.025c-0.001,0.023-0.001,0.047,0,0.07
		C372.944,129.552,372.98,129.537,373.01,129.512z"/>
	<path d="M377.134,161.713l0.521-0.297l0.193-0.109l0.176-0.188C377.693,161.263,377.392,161.464,377.134,161.713z"/>
	<path d="M373.796,130.364l-0.508-0.484l-0.345-0.188C373.128,130.02,373.434,130.261,373.796,130.364z"/>
	<path d="M245.83,442.334c-0.407,0.176-0.763,0.45-1.036,0.799l0.32-0.206C245.333,442.728,245.642,442.491,245.83,442.334z"/>
	<path d="M320.198,427.707c0-0.461-0.224-0.375-0.169,1.259c0-0.133,0.054-0.266,0.079-0.392
		C320.137,428.282,320.161,427.997,320.198,427.707z"/>
	<path d="M312.48,442.334c-0.407,0.176-0.763,0.45-1.036,0.799l0.322-0.206C311.984,442.728,312.292,442.491,312.48,442.334z"/>
	<path d="M193.525,445.867c-0.308-0.268-0.686-0.444-1.09-0.508c0.327,0.158,0.654,0.315,0.872,0.436L193.525,445.867z"/>
	<path d="M181.804,434.564c-0.048-0.476-0.195-0.938-0.43-1.356c0.167,0.434,0.306,0.879,0.418,1.332L181.804,434.564z"/>
	<path style="fill:#FCDB2B;" d="M260.848,232.808c-16.163,6.92-34.507,14.766-58.281,14.766c-9.945-0.021-19.842-1.385-29.422-4.057
		l16.442,168.812c0.582,7.056,3.796,13.634,9.005,18.43c5.208,4.796,12.03,7.458,19.11,7.456c0,0,23.313,1.21,31.092,1.21
		c8.374,0,33.478-1.21,33.478-1.21c7.08,0,13.899-2.663,19.106-7.458c5.207-4.796,8.421-11.374,9.002-18.429l17.611-186.544
		c-7.87-2.688-15.813-4.473-24.767-4.473C287.739,221.305,275.261,226.639,260.848,232.808z"/>
	<path d="M122.222,160.915l0.279,0.26l0.182,0.109C122.542,161.146,122.388,161.022,122.222,160.915z"/>
	<path d="M404.039,145.275l-2.475-12.489c-2.222-11.206-7.265-21.794-18.767-25.844c-3.687-1.295-7.87-1.852-10.697-4.534
		c-2.827-2.682-3.663-6.847-4.317-10.709c-1.21-7.089-2.348-14.184-3.59-21.261c-1.071-6.084-1.919-12.919-4.711-18.501
		c-3.632-7.495-11.169-11.878-18.664-14.777c-3.84-1.434-7.759-2.646-11.738-3.632c-18.725-4.94-38.412-6.756-57.675-7.791
		c-23.122-1.276-46.305-0.891-69.372,1.15c-17.169,1.562-35.252,3.451-51.567,9.39c-5.963,2.173-12.108,4.782-16.642,9.389
		c-5.564,5.66-7.38,14.414-3.317,21.473c2.888,5.013,7.779,8.554,12.967,10.897c6.758,3.019,13.815,5.316,21.055,6.853
		c20.159,4.456,41.039,6.205,61.635,6.95c22.827,0.921,45.691,0.175,68.409-2.234c5.617-0.617,11.226-1.358,16.824-2.222
		c6.593-1.011,10.824-9.632,8.88-15.637c-2.324-7.18-8.572-9.965-15.637-8.881c-1.041,0.164-2.076,0.315-3.117,0.466l-0.751,0.109
		c-2.394,0.303-4.787,0.585-7.181,0.848c-4.943,0.533-9.9,0.969-14.868,1.308c-11.127,0.775-22.284,1.132-33.436,1.15
		c-10.957,0-21.92-0.309-32.854-1.029c-4.988-0.327-9.965-0.743-14.929-1.247c-2.258-0.236-4.51-0.484-6.762-0.763l-2.143-0.272
		l-0.466-0.067l-2.222-0.321c-4.54-0.684-9.081-1.471-13.573-2.422c-0.453-0.101-0.859-0.353-1.149-0.715s-0.449-0.813-0.449-1.277
		c0-0.464,0.158-0.915,0.449-1.277c0.291-0.362,0.696-0.614,1.149-0.715h0.085c3.893-0.829,7.816-1.538,11.751-2.155
		c1.312-0.206,2.627-0.408,3.947-0.605h0.036c2.464-0.163,4.94-0.605,7.392-0.896c21.332-2.219,42.791-2.975,64.225-2.264
		c10.407,0.303,20.807,0.914,31.165,1.968c2.227,0.23,4.444,0.472,6.66,0.745c0.848,0.103,1.701,0.224,2.554,0.327l1.719,0.248
		c5.012,0.747,9.999,1.653,14.96,2.718c7.349,1.598,16.787,2.119,20.056,10.171c1.041,2.555,1.513,5.394,2.088,8.076l0.732,3.42
		c0.02,0.061,0.033,0.124,0.042,0.188c1.732,8.072,3.465,16.144,5.201,24.215c0.126,0.596,0.13,1.212,0.008,1.81
		c-0.121,0.597-0.365,1.164-0.714,1.663c-0.35,0.499-0.799,0.921-1.319,1.239c-0.521,0.318-1.101,0.526-1.705,0.609h-0.049
		l-1.059,0.145l-1.047,0.139c-3.317,0.432-6.639,0.835-9.964,1.211c-6.551,0.747-13.111,1.392-19.681,1.937
		c-13.057,1.086-26.138,1.798-39.248,2.137c-6.679,0.177-13.356,0.26-20.031,0.248c-26.572-0.021-53.118-1.565-79.512-4.625
		c-2.857-0.339-5.715-0.702-8.572-1.072c2.216,0.285-1.61-0.218-2.385-0.327c-1.816-0.254-3.632-0.519-5.449-0.793
		c-6.096-0.914-12.156-2.04-18.24-3.027c-7.356-1.211-14.39-0.605-21.043,3.027c-5.461,2.989-9.881,7.571-12.671,13.137
		c-2.87,5.933-3.723,12.392-5.007,18.767c-1.283,6.375-3.281,13.234-2.524,19.778c1.628,14.124,11.502,25.602,25.705,28.169
		c13.361,2.422,26.794,4.382,40.264,6.053c52.913,6.481,106.368,7.255,159.447,2.313c4.322-0.403,8.639-0.844,12.949-1.319
		c1.347-0.148,2.709,0.007,3.987,0.454c1.278,0.446,2.441,1.173,3.402,2.128c0.961,0.954,1.697,2.112,2.152,3.386
		c0.457,1.276,0.621,2.637,0.483,3.985l-1.344,13.063c-2.708,26.4-5.415,52.797-8.124,79.191c-2.824,27.719-5.669,55.435-8.53,83.15
		c-0.807,7.805-1.614,15.61-2.422,23.411c-0.774,7.682-0.883,15.607-2.343,23.198c-2.299,11.939-10.382,19.269-22.175,21.952
		c-10.805,2.458-21.841,3.749-32.921,3.85c-12.284,0.067-24.561-0.478-36.843-0.412c-13.113,0.074-29.174-1.138-39.296-10.896
		c-8.893-8.572-10.122-21.994-11.333-33.599c-1.614-15.365-3.215-30.728-4.801-46.088l-8.899-85.414l-5.757-55.267
		c-0.097-0.913-0.194-1.815-0.285-2.735c-0.69-6.593-5.358-13.046-12.713-12.714c-6.296,0.28-13.452,5.631-12.713,12.714
		l4.268,40.972l8.827,84.753c2.514,24.075,5.023,48.153,7.525,72.235c0.484,4.613,0.938,9.239,1.447,13.852
		c2.767,25.208,22.018,38.792,45.858,42.62c13.924,2.239,28.187,2.7,42.316,2.929c18.114,0.29,36.407,0.987,54.225-2.294
		c26.401-4.843,46.209-22.473,49.036-49.817c0.807-7.895,1.614-15.791,2.422-23.689c2.684-26.12,5.364-52.243,8.039-78.367
		l8.754-85.36l4.014-39.12c0.199-1.94,1.02-3.763,2.336-5.201c1.316-1.438,3.062-2.414,4.977-2.784
		c7.549-1.471,14.766-3.983,20.135-9.728C405.359,169.225,407.06,157.298,404.039,145.275z M120.058,153.714
		c0.115-0.054-0.097,0.933-0.188,1.392C119.852,154.411,119.889,153.793,120.058,153.714z M120.791,159.381
		c0.061-0.043,0.242,0.199,0.43,0.49c-0.285-0.266-0.466-0.466-0.436-0.49H120.791z M121.511,160.331
		C121.771,160.774,121.911,161.052,121.511,160.331L121.511,160.331z M122.958,161.506h0.036c0,0.042,0.067,0.084,0.091,0.127
		c-0.04-0.047-0.085-0.089-0.133-0.127H122.958z M376.324,159.75c-2.712,2.579-6.797,3.777-10.836,4.377
		c-45.283,6.72-91.225,10.122-137.005,8.62c-32.763-1.12-65.182-4.758-97.618-9.341c-3.178-0.448-6.623-1.029-8.808-3.372
		c-4.117-4.419-2.095-13.319-1.023-18.658c0.981-4.892,2.857-11.412,8.675-12.108c9.081-1.065,19.627,2.767,28.611,4.129
		c10.816,1.651,21.673,2.972,32.57,3.965c46.506,4.238,93.793,3.578,140.093-2.621c8.439-1.134,16.847-2.452,25.226-3.953
		c7.464-1.338,15.741-3.85,20.251,3.881c3.094,5.267,3.506,12.313,3.027,18.264c-0.147,2.593-1.28,5.032-3.166,6.817H376.324z"/>
</g>
</svg>
