<?xml version="1.0" encoding="UTF-8" standalone="no"?>
<!-- Generator: Adobe Illustrator 27.0.0, SVG Export Plug-In . SVG Version: 6.00 Build 0)  -->

<svg
   version="1.1"
   id="Layer_1"
   x="0px"
   y="0px"
   viewBox="0 0 500 500"
   style="enable-background:new 0 0 500 500;"
   xml:space="preserve"
   width="28"
   height="28"
   sodipodi:docname="buymeacoffee-logo.svg"
   inkscape:version="1.4 (e7c3feb100, 2024-10-09)"
   xmlns:inkscape="http://www.inkscape.org/namespaces/inkscape"
   xmlns:sodipodi="http://sodipodi.sourceforge.net/DTD/sodipodi-0.dtd"
   xmlns="http://www.w3.org/2000/svg"
   xmlns:svg="http://www.w3.org/2000/svg"><defs
   id="defs13" /><sodipodi:namedview
   id="namedview13"
   pagecolor="#ffffff"
   bordercolor="#111111"
   borderopacity="1"
   inkscape:showpageshadow="0"
   inkscape:pageopacity="0"
   inkscape:pagecheckerboard="1"
   inkscape:deskcolor="#d1d1d1"
   inkscape:zoom="17.26722"
   inkscape:cx="13.725429"
   inkscape:cy="14.449344"
   inkscape:window-width="1534"
   inkscape:window-height="803"
   inkscape:window-x="0"
   inkscape:window-y="0"
   inkscape:window-maximized="1"
   inkscape:current-layer="g13" />
<g
   id="g13">
	
	
	
	
	
	
	
	
	
	
	
	
	<path
   style="fill:#b0d8be;fill-opacity:1"
   d="m 260.84896,232.80673 c -16.163,6.92 -34.507,14.766 -58.281,14.766 -9.945,-0.021 -19.842,-1.385 -29.422,-4.057 l 16.442,168.812 c 0.582,7.056 3.796,13.634 9.005,18.43 5.208,4.796 12.03,7.458 19.11,7.456 0,0 23.313,1.21 31.092,1.21 8.374,0 33.47799,-1.21 33.47799,-1.21 7.08,0 13.899,-2.663 19.106,-7.458 5.207,-4.796 8.421,-11.374 9.002,-18.429 l 17.611,-186.544 c -7.87,-2.688 -15.813,-4.473 -24.767,-4.473 -15.485,-0.006 -27.963,5.328 -42.37599,11.497 z"
   id="path11" /><path
   d="m 404.03995,145.27373 -2.475,-12.489 c -2.222,-11.206 -7.265,-21.79399 -18.767,-25.84399 -3.687,-1.295 -7.87,-1.852 -10.697,-4.53401 -2.827,-2.681995 -3.663,-6.846995 -4.317,-10.708995 -1.21,-7.089 -2.348,-14.184 -3.59,-21.261 -1.071,-6.084 -1.919,-12.918999 -4.711,-18.500999 -3.632,-7.495 -11.169,-11.878 -18.664,-14.777 -3.84,-1.434 -7.759,-2.646 -11.738,-3.632 -18.725,-4.94 -38.412,-6.756 -57.675,-7.791 -23.12199,-1.276 -46.30499,-0.891 -69.37199,1.15 -17.169,1.562 -35.252,3.451 -51.567,9.39 -5.963,2.173 -12.108,4.782 -16.642,9.389 -5.564,5.66 -7.38,14.414 -3.317,21.472999 2.888,5.013 7.779,8.554 12.967,10.897 6.758,3.019 13.815,5.316 21.055,6.853 20.159,4.456 41.039,6.205 61.635,6.95 22.827,0.921 45.69099,0.175 68.40899,-2.234 5.617,-0.617 11.226,-1.358 16.824,-2.222 6.593,-1.011 10.824,-9.632 8.88,-15.637 -2.324,-7.18 -8.572,-9.964999 -15.637,-8.880999 -1.041,0.164 -2.076,0.315 -3.117,0.466 l -0.751,0.109 c -2.394,0.303 -4.787,0.584999 -7.181,0.847999 -4.943,0.533 -9.9,0.969 -14.868,1.308 -11.12699,0.775 -22.28399,1.132 -33.43599,1.15 -10.957,0 -21.92,-0.309 -32.854,-1.029 -4.988,-0.327 -9.965,-0.743 -14.929,-1.247 -2.258,-0.236 -4.51,-0.484 -6.762,-0.762999 l -2.143,-0.272 -0.466,-0.067 -2.222,-0.321 c -4.54,-0.684 -9.081,-1.471 -13.573,-2.422 -0.453,-0.101 -0.859,-0.353 -1.149,-0.715 -0.29,-0.362 -0.449,-0.813 -0.449,-1.277 0,-0.464 0.158,-0.915 0.449,-1.277 0.291,-0.362 0.696,-0.614 1.149,-0.715 h 0.085 c 3.893,-0.829 7.816,-1.538 11.751,-2.155 1.312,-0.206 2.627,-0.408 3.947,-0.605 h 0.036 c 2.464,-0.163 4.94,-0.605 7.392,-0.896 21.332,-2.219 42.791,-2.975 64.225,-2.264 10.40699,0.303 20.80699,0.914 31.16499,1.968 2.227,0.23 4.444,0.472 6.66,0.745 0.848,0.103 1.701,0.224 2.554,0.327 l 1.719,0.248 c 5.012,0.747 9.999,1.653 14.96,2.718 7.349,1.598 16.787,2.119 20.056,10.170999 1.041,2.555 1.513,5.394 2.088,8.076 l 0.732,3.42 c 0.02,0.061 0.033,0.124 0.042,0.188 1.732,8.072 3.465,16.144 5.201,24.215005 0.126,0.596 0.13,1.212 0.008,1.81 -0.121,0.597 -0.365,1.164 -0.714,1.663 -0.35,0.499 -0.799,0.921 -1.319,1.239 -0.521,0.318 -1.101,0.526 -1.705,0.609 h -0.049 l -1.059,0.145 -1.047,0.13899 c -3.317,0.43201 -6.639,0.835 -9.964,1.211 -6.551,0.747 -13.111,1.392 -19.681,1.937 -13.057,1.086 -26.138,1.798 -39.248,2.137 -6.67899,0.17701 -13.35599,0.26001 -20.03099,0.24801 -26.572,-0.021 -53.118,-1.565 -79.512,-4.625 -2.857,-0.339 -5.715,-0.702 -8.572,-1.07201 2.216,0.285 -1.61,-0.218 -2.385,-0.327 -1.816,-0.254 -3.632,-0.519 -5.449,-0.793 -6.096,-0.914 -12.156,-2.04 -18.24,-3.027 -7.356,-1.211 -14.39,-0.605 -21.043,3.027 -5.461,2.989 -9.881,7.571 -12.671,13.137 -2.869996,5.933 -3.722996,12.392 -5.006996,18.767 -1.283,6.375 -3.281,13.234 -2.524,19.778 1.628,14.124 11.501996,25.602 25.704996,28.169 13.361,2.422 26.794,4.382 40.264,6.053 52.913,6.481 106.368,7.255 159.44699,2.313 4.322,-0.403 8.639,-0.844 12.949,-1.319 1.347,-0.148 2.709,0.007 3.987,0.454 1.278,0.446 2.441,1.173 3.402,2.128 0.961,0.954 1.697,2.112 2.152,3.386 0.457,1.276 0.621,2.637 0.483,3.985 l -1.344,13.063 c -2.708,26.4 -5.415,52.797 -8.124,79.191 -2.824,27.719 -5.669,55.435 -8.53,83.15 -0.807,7.805 -1.614,15.61 -2.422,23.411 -0.774,7.682 -0.883,15.607 -2.343,23.198 -2.299,11.939 -10.382,19.269 -22.175,21.952 -10.805,2.458 -21.841,3.749 -32.92099,3.85 -12.284,0.067 -24.561,-0.478 -36.843,-0.412 -13.113,0.074 -29.174,-1.138 -39.296,-10.896 -8.893,-8.572 -10.122,-21.994 -11.333,-33.599 -1.614,-15.365 -3.215,-30.728 -4.801,-46.088 l -8.899,-85.414 -5.757,-55.267 c -0.097,-0.913 -0.194,-1.815 -0.285,-2.735 -0.69,-6.593 -5.358,-13.046 -12.713,-12.714 -6.296,0.28 -13.452,5.631 -12.713,12.714 l 4.268,40.972 8.827,84.753 c 2.514,24.075 5.023,48.153 7.525,72.235 0.484,4.613 0.938,9.239 1.447,13.852 2.767,25.208 22.018,38.792 45.858,42.62 13.924,2.239 28.187,2.7 42.316,2.929 18.114,0.29 36.40699,0.987 54.22499,-2.294 26.401,-4.843 46.209,-22.473 49.036,-49.817 0.807,-7.895 1.614,-15.791 2.422,-23.689 2.684,-26.12 5.364,-52.243 8.039,-78.367 l 8.754,-85.36 4.014,-39.12 c 0.199,-1.94 1.02,-3.763 2.336,-5.201 1.316,-1.438 3.062,-2.414 4.977,-2.784 7.549,-1.471 14.766,-3.983 20.135,-9.728 8.551,-9.149 10.252,-21.076 7.231,-33.099 z m -283.98099,8.439 c 0.115,-0.054 -0.097,0.933 -0.188,1.392 -0.018,-0.695 0.019,-1.313 0.188,-1.392 z m 0.733,5.667 c 0.061,-0.043 0.242,0.199 0.43,0.49 -0.285,-0.266 -0.466,-0.466 -0.436,-0.49 z m 0.72,0.95 c 0.26,0.443 0.4,0.721 0,0 z m 1.447,1.175 h 0.036 c 0,0.042 0.067,0.084 0.091,0.127 -0.04,-0.047 -0.085,-0.089 -0.133,-0.127 z m 253.36599,-1.756 c -2.712,2.579 -6.797,3.777 -10.836,4.377 -45.283,6.72 -91.225,10.122 -137.00499,8.62 -32.763,-1.12 -65.182,-4.758 -97.618,-9.341 -3.178,-0.448 -6.623,-1.029 -8.808,-3.372 -4.117,-4.419 -2.095,-13.319 -1.023,-18.658 0.981,-4.892 2.857,-11.412 8.675,-12.108 9.081,-1.065 19.627,2.767 28.611,4.129 10.816,1.651 21.673,2.972 32.57,3.965 46.506,4.238 93.79299,3.578 140.09299,-2.621 8.439,-1.134 16.847,-2.452 25.226,-3.953 7.464,-1.338 15.741,-3.85 20.251,3.881 3.094,5.267 3.506,12.313 3.027,18.264 -0.147,2.593 -1.28,5.032 -3.166,6.817 z"
   id="path13"
   style="fill:#f6f8fe;fill-opacity:1" />
</g>
</svg>
